<?xml version="1.0" encoding="utf-8"?>
<!-- Generator: Adobe Illustrator 16.0.0, SVG Export Plug-In . SVG Version: 6.00 Build 0)  -->
<!DOCTYPE svg PUBLIC "-//W3C//DTD SVG 1.1//EN" "http://www.w3.org/Graphics/SVG/1.1/DTD/svg11.dtd">
<svg version="1.1" id="Layer_1" xmlns="http://www.w3.org/2000/svg" xmlns:xlink="http://www.w3.org/1999/xlink" x="0px" y="0px"
	 width="107.814px" height="34.05px" viewBox="18.17 1.95 107.814 34.05" enable-background="new 18.17 1.95 107.814 34.05"
	 xml:space="preserve">
<path d="M40.092,27.002V16.564h-2.436v10.461c0,1.66,0.044,4.441-1.262,5.754c-0.556,0.563-1.334,0.835-2.392,0.835
	c-1.018,0-1.778-0.271-2.336-0.83c-1.362-1.375-1.318-4.258-1.318-5.979v-0.497V20.76c0-2.043,0.051-5.46-1.982-7.513
	c-1.023-1.033-2.401-1.557-4.107-1.557c-1.715,0-3.101,0.523-4.124,1.557c-2.017,2.034-1.966,5.448-1.966,7.492v10.439h2.436V20.715
	c0-1.662-0.044-4.441,1.262-5.754c0.558-0.56,1.337-0.835,2.392-0.835c1.045,0,1.822,0.272,2.38,0.835
	c1.318,1.333,1.274,4.113,1.274,5.775v5.571v0.476c0,2.098-0.051,5.618,2.021,7.716c1.023,1.03,2.392,1.551,4.068,1.551
	c1.715,0,3.101-0.523,4.123-1.556C40.143,32.458,40.092,29.045,40.092,27.002z"/>
<polygon fill="#60D9EF" points="44.149,5.696 43.396,3.379 40.092,4.451 40.092,1.95 37.656,1.95 37.656,4.437 34.407,3.379 
	33.654,5.696 36.933,6.761 34.909,9.547 36.879,10.979 38.903,8.19 40.929,10.979 42.897,9.547 40.871,6.761 "/>
<g>
	<path d="M47.369,16.79c-2.014,0-3.654-1.639-3.654-3.653c0-2.011,1.64-3.651,3.654-3.651c2.015,0,3.653,1.64,3.653,3.651
		C51.022,15.151,49.384,16.79,47.369,16.79z M47.369,11.921c-0.67,0-1.218,0.546-1.218,1.215c0,0.671,0.548,1.218,1.218,1.218
		c0.671,0,1.218-0.547,1.218-1.218C48.587,12.467,48.042,11.921,47.369,11.921z"/>
</g>
<g>
	<path d="M63.828,10.392c-1.817,0.341-3.488,0.427-5.11,0.427h-0.951V5.845h1.596v3.646c1.367-0.027,2.767-0.137,4.255-0.39
		L63.828,10.392z M66.829,15.232v1.253h-7.667v-3.12h5.775v-0.621h-5.79v-1.257h7.399v3.059h-5.78v0.685H66.829z M64.937,8.234
		h-2.719V6.956h2.719V5.382h1.609v5.683h-1.609V8.234z"/>
	<path d="M71.849,8.77c0,1.696,0.572,3.413,2.157,4.255l-0.852,1.194c-1.001-0.523-1.647-1.413-2.051-2.475
		c-0.375,1.169-1.035,2.158-2.045,2.73l-0.904-1.208c1.597-0.925,2.17-2.768,2.17-4.499V8.585h-1.791V7.282h1.791V5.757h1.524v1.525
		h1.777v1.303h-1.777V8.77z M78.078,5.38v11.229h-1.521v-5.61h-0.914v5.108h-1.498V5.562h1.498v4.121h0.914V5.377h1.521V5.38z"/>
	<path d="M85.442,11.723v0.962h3.06v3.804h-7.755v-3.804h3.085v-0.962h-4.267V10.44h10.143v1.282H85.442z M80.578,7.721
		c0-1.353,1.582-2.159,4.059-2.159c2.476,0,4.072,0.806,4.072,2.159c0,1.341-1.597,2.146-4.072,2.146
		C82.16,9.866,80.578,9.062,80.578,7.721z M82.236,7.721c0,0.623,0.878,0.939,2.4,0.939c1.536,0,2.414-0.316,2.414-0.939
		c0-0.634-0.878-0.938-2.414-0.938C83.114,6.782,82.236,7.086,82.236,7.721z M86.918,13.938h-4.596v1.294h4.596V13.938z"/>
</g>
<g>
	<g>
		<path d="M64.164,26.923v5.692h-1.52v-5.692c0-0.825-0.143-1.434-0.436-1.821c-0.29-0.384-0.743-0.583-1.362-0.583
			c-0.706,0-1.25,0.255-1.629,0.754c-0.38,0.502-0.567,1.218-0.567,2.155v5.19h-1.508v-9.185h1.508c0,0,0.632,0.457,1.09,0.186
			c0.458-0.269,1.004-0.409,1.632-0.409c0.934,0,1.633,0.31,2.093,0.928C63.93,24.742,64.164,25.677,64.164,26.923z"/>
		<path d="M64.347,32.799h-1.885v-5.876c0-0.782-0.134-1.362-0.397-1.712c-0.258-0.343-0.658-0.51-1.216-0.51
			c-0.65,0-1.134,0.222-1.483,0.681c-0.353,0.464-0.532,1.151-0.532,2.043v5.374h-1.875v-9.553h1.752l0.049,0.035
			c0.002,0.003,0.335,0.238,0.653,0.238c0.093,0,0.17-0.02,0.24-0.06c0.488-0.288,1.067-0.436,1.725-0.436
			c0.989,0,1.745,0.338,2.239,0.999c0.486,0.643,0.735,1.618,0.735,2.899v5.876H64.347z M62.827,32.435h1.155v-5.512
			c0-1.201-0.222-2.1-0.66-2.681c-0.427-0.565-1.08-0.854-1.949-0.854c-0.591,0-1.107,0.131-1.539,0.381
			c-0.127,0.073-0.268,0.111-0.426,0.111c-0.353,0-0.688-0.19-0.813-0.271h-1.269v8.82h1.142v-5.007
			c0-0.987,0.197-1.727,0.606-2.267c0.418-0.548,1.016-0.823,1.775-0.823c0.672,0,1.179,0.219,1.506,0.656
			c0.319,0.421,0.472,1.052,0.472,1.932V32.435L62.827,32.435z"/>
	</g>
	<g>
		<path d="M67.257,29.141v-5.695h1.508v5.695c0,0.825,0.146,1.432,0.438,1.819c0.289,0.385,0.745,0.58,1.358,0.58
			c0.711,0,1.257-0.25,1.63-0.749c0.38-0.502,0.567-1.221,0.567-2.152v-5.195h1.521v9.17H72.76c0,0-0.634-0.445-1.097-0.169
			c-0.46,0.273-0.999,0.409-1.615,0.409c-0.942,0-1.642-0.305-2.102-0.923C67.489,31.316,67.257,30.384,67.257,29.141z"/>
		<path d="M70.048,33.039c-0.998,0-1.755-0.338-2.25-0.999c-0.477-0.645-0.723-1.618-0.723-2.897v-5.88h1.876v5.878
			c0,0.782,0.133,1.357,0.399,1.71c0.253,0.338,0.663,0.509,1.212,0.509c0.661,0,1.146-0.224,1.482-0.676
			c0.355-0.466,0.533-1.153,0.533-2.043v-5.378h1.886v9.536h-1.762l-0.049-0.036c-0.002,0-0.332-0.229-0.647-0.229
			c-0.098,0-0.179,0.024-0.253,0.064C71.273,32.889,70.699,33.039,70.048,33.039z M67.442,23.629v5.512
			c0,1.198,0.219,2.1,0.653,2.681c0.426,0.57,1.067,0.852,1.956,0.852c0.592,0,1.089-0.129,1.522-0.384
			c0.13-0.076,0.276-0.113,0.439-0.113c0.351,0,0.682,0.183,0.807,0.259h1.28v-8.806h-1.154v5.012c0,0.973-0.205,1.734-0.606,2.262
			c-0.407,0.548-1.003,0.823-1.776,0.823c-0.669,0-1.176-0.221-1.502-0.656c-0.321-0.424-0.475-1.057-0.475-1.929v-5.512H67.442z"/>
	</g>
	<g>
		<path d="M99.301,19.856v1.251h-1.718c-0.542,0-0.918,0.114-1.127,0.335c-0.21,0.22-0.314,0.614-0.314,1.178v0.809h3.159v1.176
			h-3.159v8.011h-1.508v-8.011h-2.455v-1.176h2.455v-0.637c0-1.009,0.229-1.751,0.688-2.222c0.464-0.479,1.187-0.714,2.167-0.714
			H99.301z"/>
		<path d="M96.322,32.799h-1.874v-8.012h-2.45v-1.541h2.45v-0.459c0-1.054,0.252-1.844,0.744-2.348
			c0.495-0.512,1.269-0.769,2.296-0.769h1.993v1.617h-1.898c-0.485,0-0.818,0.091-0.999,0.276c-0.169,0.181-0.259,0.547-0.259,1.051
			v0.631h3.159v1.541h-3.159v8.012H96.322z M94.814,32.435h1.142v-8.012h3.159v-0.809h-3.159V22.62c0-0.623,0.119-1.047,0.366-1.304
			c0.248-0.259,0.671-0.392,1.261-0.392h1.532v-0.886h-1.627c-0.928,0-1.612,0.222-2.036,0.662
			c-0.424,0.433-0.638,1.137-0.638,2.091v0.822h-2.452v0.809h2.452V32.435L94.814,32.435z"/>
	</g>
	<g>
		<path d="M102.296,29.141v-5.695h1.51v5.695c0,0.825,0.143,1.432,0.438,1.819c0.291,0.385,0.747,0.58,1.356,0.58
			c0.714,0,1.261-0.25,1.632-0.749c0.38-0.502,0.565-1.221,0.565-2.152v-5.195h1.521v9.17h-1.521c0,0-0.633-0.445-1.094-0.169
			c-0.459,0.273-1.004,0.409-1.617,0.409c-0.942,0-1.642-0.305-2.099-0.923C102.526,31.316,102.296,30.384,102.296,29.141z"/>
		<path d="M105.086,33.039c-0.999,0-1.756-0.338-2.246-0.999c-0.48-0.645-0.728-1.618-0.728-2.897v-5.88h1.879v5.878
			c0,0.782,0.134,1.362,0.399,1.71c0.253,0.338,0.662,0.509,1.209,0.509c0.661,0,1.148-0.224,1.484-0.676
			c0.352-0.466,0.532-1.153,0.532-2.043v-5.378h1.884v9.536h-1.76l-0.05-0.036c-0.003,0-0.331-0.229-0.649-0.229
			c-0.093,0-0.176,0.024-0.25,0.064C106.313,32.889,105.737,33.039,105.086,33.039z M102.479,23.629v5.512
			c0,1.198,0.219,2.1,0.654,2.681c0.426,0.57,1.063,0.852,1.953,0.852c0.585,0,1.099-0.129,1.526-0.384
			c0.129-0.076,0.271-0.113,0.434-0.113c0.352,0,0.685,0.183,0.809,0.259h1.279v-8.806h-1.153v5.012
			c0,0.968-0.202,1.731-0.604,2.262c-0.406,0.548-1.006,0.823-1.776,0.823c-0.666,0-1.173-0.221-1.499-0.656
			c-0.318-0.419-0.476-1.052-0.476-1.929v-5.512H102.479z"/>
	</g>
	<g>
		<path d="M122.745,29.285c0,0.681,0.123,1.191,0.368,1.532c0.25,0.352,0.618,0.523,1.106,0.523h1.765v1.274h-1.912
			c-0.899,0-1.599-0.285-2.094-0.865c-0.497-0.581-0.742-1.401-0.742-2.465v-8.342h-2.421v-1.183h3.18l0.75,0.759V29.285
			L122.745,29.285z"/>
		<path d="M126.165,32.799h-2.093c-0.956,0-1.708-0.314-2.231-0.933c-0.523-0.609-0.79-1.478-0.79-2.581v-8.161h-2.419v-1.549h3.439
			l0.856,0.861v8.844c0,0.638,0.112,1.118,0.336,1.428c0.214,0.3,0.527,0.444,0.961,0.444h1.945v1.646H126.165z M118.996,20.76
			h2.421v8.525c0,1.014,0.238,1.803,0.697,2.346c0.462,0.542,1.102,0.804,1.958,0.804h1.727v-0.913h-1.577
			c-0.55,0-0.968-0.2-1.253-0.595c-0.27-0.371-0.409-0.923-0.409-1.642v-8.691l-0.643-0.647h-2.921V20.76L118.996,20.76z"/>
	</g>
	<g>
		<path d="M115.57,29.285c0,0.681,0.126,1.191,0.371,1.532c0.253,0.352,0.619,0.523,1.108,0.523h1.761v1.274h-1.91
			c-0.899,0-1.599-0.285-2.094-0.865c-0.492-0.581-0.739-1.401-0.739-2.465v-8.342h-2.424v-1.183h3.181l0.751,0.759v8.766H115.57z"
			/>
		<path d="M118.996,32.799h-2.094c-0.956,0-1.705-0.314-2.23-0.933c-0.523-0.611-0.785-1.479-0.785-2.581v-8.161h-2.424v-1.549
			h3.439l0.858,0.861v8.844c0,0.638,0.109,1.118,0.336,1.428c0.214,0.3,0.527,0.444,0.958,0.444h1.946v1.646H118.996z
			 M111.827,20.76h2.421v8.525c0,1.014,0.235,1.801,0.694,2.346c0.462,0.542,1.104,0.804,1.958,0.804h1.729v-0.913h-1.58
			c-0.549,0-0.968-0.2-1.253-0.595c-0.269-0.371-0.407-0.923-0.407-1.642v-8.691l-0.642-0.647h-2.921V20.76L111.827,20.76z"/>
	</g>
	<g>
		<path d="M87.859,29.285c0,0.681,0.121,1.191,0.366,1.532c0.252,0.352,0.618,0.523,1.108,0.523h1.761v1.274h-1.908
			c-0.898,0-1.599-0.285-2.093-0.865c-0.497-0.581-0.742-1.401-0.742-2.465v-8.342H83.93v-1.183h3.183l0.747,0.759V29.285
			L87.859,29.285z"/>
		<path d="M91.28,32.799h-2.091c-0.954,0-1.706-0.314-2.231-0.933c-0.525-0.609-0.787-1.478-0.787-2.581v-8.161h-2.422v-1.549h3.439
			l0.856,0.861v8.844c0,0.643,0.114,1.123,0.336,1.428c0.214,0.3,0.527,0.444,0.963,0.444h1.941v1.646H91.28z M84.113,20.76h2.419
			v8.525c0,1.014,0.238,1.803,0.699,2.346c0.459,0.542,1.099,0.804,1.955,0.804h1.728v-0.913h-1.577c-0.552,0-0.974-0.2-1.256-0.595
			c-0.271-0.374-0.404-0.909-0.404-1.642v-8.691l-0.646-0.647h-2.918V20.76z"/>
	</g>
	<g>
		<path d="M80.692,29.285c0,0.681,0.119,1.191,0.369,1.532c0.25,0.352,0.616,0.523,1.108,0.523h1.76v1.274h-1.912
			c-0.899,0-1.599-0.285-2.093-0.865c-0.495-0.581-0.742-1.401-0.742-2.465v-8.342h-2.417v-1.183h3.178l0.752,0.759v8.766H80.692z"
			/>
		<path d="M84.113,32.799h-2.096c-0.956,0-1.703-0.314-2.231-0.933c-0.523-0.611-0.785-1.479-0.785-2.581v-8.161H76.58v-1.549h3.439
			l0.856,0.861v8.844c0,0.647,0.111,1.123,0.333,1.428c0.214,0.3,0.528,0.444,0.961,0.444h1.945v1.646H84.113z M76.946,20.76h2.419
			v8.525c0,1.014,0.235,1.801,0.697,2.346c0.461,0.542,1.099,0.804,1.955,0.804h1.729v-0.913H82.17c-0.552,0-0.971-0.2-1.256-0.595
			c-0.271-0.369-0.404-0.909-0.404-1.642v-8.691l-0.643-0.647h-2.921V20.76z"/>
	</g>
</g>
</svg>
